<?xml version="1.0" encoding="UTF-8" standalone="no"?>
<svg
   xmlns:dc="http://purl.org/dc/elements/1.1/"
   xmlns:cc="http://web.resource.org/cc/"
   xmlns:rdf="http://www.w3.org/1999/02/22-rdf-syntax-ns#"
   xmlns:svg="http://www.w3.org/2000/svg"
   xmlns="http://www.w3.org/2000/svg"
   xmlns:sodipodi="http://sodipodi.sourceforge.net/DTD/sodipodi-0.dtd"
   xmlns:inkscape="http://www.inkscape.org/namespaces/inkscape"
   version="1.1"
   id="Icon"
   x="0px"
   y="0px"
   viewBox="0 0 48 48"
   enable-background="new 0 0 48 48"
   xml:space="preserve"
   sodipodi:version="0.32"
   inkscape:version="0.45pre1"
   width="210mm"
   height="297mm"
   sodipodi:docname="webicon-twitch.svg"
   inkscape:output_extension="org.inkscape.output.svg.inkscape"
   sodipodi:docbase="E:\lenny\workspace\draya\css\webicons-master\webicons"
   sodipodi:modified="TRUE"><metadata
   id="metadata17"><rdf:RDF><cc:Work
       rdf:about=""><dc:format>image/svg+xml</dc:format><dc:type
         rdf:resource="http://purl.org/dc/dcmitype/StillImage" /></cc:Work></rdf:RDF></metadata><defs
   id="defs15" /><sodipodi:namedview
   inkscape:window-height="936"
   inkscape:window-width="1146"
   inkscape:pageshadow="2"
   inkscape:pageopacity="0.0"
   guidetolerance="10.0"
   gridtolerance="10.0"
   objecttolerance="10.0"
   borderopacity="1.0"
   bordercolor="#666666"
   pagecolor="#ffffff"
   id="base"
   inkscape:zoom="0.18102133"
   inkscape:cx="694.5173"
   inkscape:cy="-115.5933"
   inkscape:window-x="23"
   inkscape:window-y="23"
   inkscape:current-layer="Icon" />
<linearGradient
   id="SVGID_1_"
   gradientUnits="userSpaceOnUse"
   x1="23.9995"
   y1="0"
   x2="23.9995"
   y2="48.0005">
	<stop
   offset="0"
   style="stop-color:#b9a3e3;stop-opacity:1;"
   id="stop4" />
	<stop
   offset="1"
   style="stop-color:#6441a5;stop-opacity:1;"
   id="stop6" />
</linearGradient>
<path
   fill-rule="evenodd"
   clip-rule="evenodd"
   fill="url(#SVGID_1_)"
   d="M48,42c0,3.313-2.687,6-6,6H6c-3.313,0-6-2.687-6-6V6  c0-3.313,2.687-6,6-6h36c3.313,0,6,2.687,6,6V42z"
   id="path8"
   inkscape:export-filename="E:\lenny\workspace\draya\css\webicons-master\webicons\twitch.png"
   inkscape:export-xdpi="300"
   inkscape:export-ydpi="300" />


<path
   id="path3302"
   d="M 41.795816,4.6078426 C 36.541875,4.6145127 16.780824,4.6470788 9.2803595,4.6477928 C 8.3727316,6.8732349 7.6929539,8.5922749 6.803448,10.616351 C 6.8027486,18.621947 6.8023217,25.353174 6.7794779,36.276359 C 11.249025,36.276352 13.37328,36.287277 15.866149,36.278353 C 15.842427,38.565095 15.850533,39.885644 15.890118,41.200217 C 17.501278,41.206781 18.733335,41.198592 20.48439,41.214202 C 22.216549,39.419582 24.813027,36.955409 25.28041,36.288344 C 27.364796,36.266177 28.807791,36.292339 32.303653,36.292339 C 34.326046,34.266717 39.939966,28.653175 41.777839,26.876077 C 41.794282,22.133265 41.771739,7.8491278 41.795816,4.6078426 z M 12.168759,7.9097255 C 19.669221,7.9090121 33.234,7.9223862 38.487942,7.915718 C 38.463864,11.157004 38.502384,20.914783 38.485944,25.657596 C 36.648069,27.434693 35.200956,28.913389 33.178561,30.939011 C 29.6827,30.939011 26.521848,30.928833 24.437461,30.950996 C 23.970079,31.618071 21.311676,34.08223 19.579518,35.876857 C 19.563554,34.355458 19.567741,32.153455 19.565535,30.941008 C 17.025851,30.918719 14.44756,30.939387 12.162766,30.954991 C 12.182652,20.187077 12.138976,11.644066 12.168759,7.9097255 z M 21.209486,14.068047 L 21.209486,23.524256 L 24.079906,23.524256 L 24.079906,14.068047 L 21.209486,14.068047 z M 29.846716,14.082029 L 29.846716,23.540236 L 32.717136,23.540236 L 32.717136,14.082029 L 29.846716,14.082029 z "
   style="fill:#6441a5;fill-opacity:1" /><path
   style="fill:#ffffff;fill-opacity:1"
   d="M 41.795816,5.9307447 C 36.541875,5.9374148 16.780824,5.9699809 9.2803595,5.9706949 C 8.3727316,8.196137 7.6929539,9.915177 6.803448,11.939253 C 6.8027486,19.944849 6.8023217,26.676076 6.7794779,37.599261 C 11.249025,37.599254 13.37328,37.610179 15.866149,37.601255 C 15.842427,39.887997 15.850533,41.208546 15.890118,42.523119 C 17.501278,42.529683 18.733335,42.521494 20.48439,42.537104 C 22.216549,40.742484 24.813027,38.278311 25.28041,37.611246 C 27.364796,37.589079 28.807791,37.615241 32.303653,37.615241 C 34.326046,35.589619 39.939966,29.976077 41.777839,28.198979 C 41.794282,23.456167 41.771739,9.1720299 41.795816,5.9307447 z M 12.168759,9.2326276 C 19.669221,9.2319142 33.234,9.2452883 38.487942,9.2386201 C 38.463864,12.479906 38.502384,22.237685 38.485944,26.980498 C 36.648069,28.757595 35.200956,30.236291 33.178561,32.261913 C 29.6827,32.261913 26.521848,32.251735 24.437461,32.273898 C 23.970079,32.940973 21.311676,35.405132 19.579518,37.199759 C 19.563554,35.67836 19.567741,33.476357 19.565535,32.26391 C 17.025851,32.241621 14.44756,32.262289 12.162766,32.277893 C 12.182652,21.509979 12.138976,12.966968 12.168759,9.2326276 z M 21.209486,15.390949 L 21.209486,24.847158 L 24.079906,24.847158 L 24.079906,15.390949 L 21.209486,15.390949 z M 29.846716,15.404931 L 29.846716,24.863138 L 32.717136,24.863138 L 32.717136,15.404931 L 29.846716,15.404931 z "
   id="path3291" /></svg>